<svg width="956" height="130" viewBox="0 0 956 130" fill="none" xmlns="http://www.w3.org/2000/svg">
<g clip-path="url(#clip0_80_2)">
<path d="M79.258 110.812L76.8301 112.944" stroke="white" stroke-width="1.46608" stroke-miterlimit="10"/>
<path d="M79.258 110.812L76.8301 112.944" stroke="white" stroke-width="1.46608" stroke-miterlimit="10"/>
<path d="M81.9815 102.384L69.918 112.951" stroke="white" stroke-width="1.46608" stroke-miterlimit="10"/>
<path d="M81.9815 102.384L69.918 112.951" stroke="white" stroke-width="1.46608" stroke-miterlimit="10"/>
<path d="M84.6911 93.9619L63.0195 112.957" stroke="white" stroke-width="1.46608" stroke-miterlimit="10"/>
<path d="M84.6911 93.9619L63.0195 112.957" stroke="white" stroke-width="1.46608" stroke-miterlimit="10"/>
<path d="M87.4095 85.5392H87.4026L56.123 112.956" stroke="white" stroke-width="1.46608" stroke-miterlimit="10"/>
<path d="M87.4095 85.5392H87.4026L56.123 112.956" stroke="white" stroke-width="1.46608" stroke-miterlimit="10"/>
<path d="M90.1193 77.1172L49.2246 112.949" stroke="white" stroke-width="1.46608" stroke-miterlimit="10"/>
<path d="M90.1193 77.1172L49.2246 112.949" stroke="white" stroke-width="1.46608" stroke-miterlimit="10"/>
<path d="M92.8249 68.7031L42.3359 112.95" stroke="white" stroke-width="1.46608" stroke-miterlimit="10"/>
<path d="M92.8249 68.7031L42.3359 112.95" stroke="white" stroke-width="1.46608" stroke-miterlimit="10"/>
<path d="M95.5363 60.2899L35.4393 112.945" stroke="white" stroke-width="1.46608" stroke-miterlimit="10"/>
<path d="M95.5363 60.2899L35.4393 112.945" stroke="white" stroke-width="1.46608" stroke-miterlimit="10"/>
<path d="M98.2419 51.8732L28.5507 112.943" stroke="white" stroke-width="1.46608" stroke-miterlimit="10"/>
<path d="M98.2419 51.8732L28.5507 112.943" stroke="white" stroke-width="1.46608" stroke-miterlimit="10"/>
<path d="M97.8744 46.1494L21.6582 112.937" stroke="white" stroke-width="1.46608" stroke-miterlimit="10"/>
<path d="M97.8744 46.1494L21.6582 112.937" stroke="white" stroke-width="1.46608" stroke-miterlimit="10"/>
<path d="M94.9341 42.6797L14.7725 112.937H14.7656" stroke="white" stroke-width="1.46608" stroke-miterlimit="10"/>
<path d="M94.9341 42.6797L14.7725 112.937H14.7656" stroke="white" stroke-width="1.46608" stroke-miterlimit="10"/>
<path d="M89.7094 41.2178L8.23047 112.62" stroke="white" stroke-width="1.46608" stroke-miterlimit="10"/>
<path d="M89.7094 41.2178L8.23047 112.62" stroke="white" stroke-width="1.46608" stroke-miterlimit="10"/>
<path d="M90.2729 16.5447L8.98022 87.781" stroke="white" stroke-width="1.46608" stroke-miterlimit="10"/>
<path d="M90.2729 16.5447L8.98022 87.781" stroke="white" stroke-width="1.46608" stroke-miterlimit="10"/>
<path d="M83.9069 16.083L3.60742 86.4502" stroke="white" stroke-width="1.46608" stroke-miterlimit="10"/>
<path d="M83.9069 16.083L3.60742 86.4502" stroke="white" stroke-width="1.46608" stroke-miterlimit="10"/>
<path d="M77.0158 16.0762L0.599609 83.0361" stroke="white" stroke-width="1.46608" stroke-miterlimit="10"/>
<path d="M77.0158 16.0762L0.599609 83.0361" stroke="white" stroke-width="1.46608" stroke-miterlimit="10"/>
<path d="M70.1234 16.0693L0.0527344 77.4699" stroke="white" stroke-width="1.46608" stroke-miterlimit="10"/>
<path d="M70.1234 16.0693L0.0527344 77.4699" stroke="white" stroke-width="1.46608" stroke-miterlimit="10"/>
<path d="M63.2303 16.0693L2.75391 69.0689" stroke="white" stroke-width="1.46608" stroke-miterlimit="10"/>
<path d="M63.2303 16.0693L2.75391 69.0689" stroke="white" stroke-width="1.46608" stroke-miterlimit="10"/>
<path d="M56.3331 16.0693L5.46484 60.6472" stroke="white" stroke-width="1.46608" stroke-miterlimit="10"/>
<path d="M56.3331 16.0693L5.46484 60.6472" stroke="white" stroke-width="1.46608" stroke-miterlimit="10"/>
<path d="M49.4411 16.0635L8.16016 52.2403" stroke="white" stroke-width="1.46608" stroke-miterlimit="10"/>
<path d="M49.4411 16.0635L8.16016 52.2403" stroke="white" stroke-width="1.46608" stroke-miterlimit="10"/>
<path d="M42.5439 16.0635L10.8711 43.8186" stroke="white" stroke-width="1.46608" stroke-miterlimit="10"/>
<path d="M42.5439 16.0635L10.8711 43.8186" stroke="white" stroke-width="1.46608" stroke-miterlimit="10"/>
<path d="M35.6468 16.0635L13.582 35.4038" stroke="white" stroke-width="1.46608" stroke-miterlimit="10"/>
<path d="M35.6468 16.0635L13.582 35.4038" stroke="white" stroke-width="1.46608" stroke-miterlimit="10"/>
<path d="M28.7417 16.0693L16.2988 26.9672" stroke="white" stroke-width="1.46608" stroke-miterlimit="10"/>
<path d="M28.7417 16.0693L16.2988 26.9672" stroke="white" stroke-width="1.46608" stroke-miterlimit="10"/>
<path d="M21.8306 16.0831L19.0096 18.5524" stroke="white" stroke-width="1.46608" stroke-miterlimit="10"/>
<path d="M21.8306 16.0831L19.0096 18.5524" stroke="white" stroke-width="1.46608" stroke-miterlimit="10"/>
</g>
<path d="M155.555 101.2C136.255 101.2 121.355 86.7 121.355 65.2C121.355 43.5 136.355 28.8 157.755 28.8C173.355 28.8 185.355 36.7 189.655 49.8L171.555 55.2C169.455 49 164.155 45.5 157.255 45.5C147.055 45.5 139.955 53.3 139.955 65.2C139.955 77.2 147.255 84.5 157.855 84.5C165.855 84.5 171.555 80.5 173.655 74.6H158.755V59.8H190.455V100H177.155L176.455 92.9H176.055C171.155 98.5 163.855 101.2 155.555 101.2ZM214.501 101.2C204.901 101.2 198.101 95.4 198.101 86.7C198.101 78.7 203.801 73.2 216.801 71.2L224.701 70C227.901 69.5 228.501 69.1 228.501 67.7C228.501 65.2 226.601 63.4 222.901 63.4C219.201 63.4 216.401 65.2 215.401 69.2L199.401 65.9C201.401 55.9 209.701 49.6 223.301 49.6C237.801 49.6 245.001 56.7 245.001 70.4V100H229.501L229.001 94.3H228.601C226.001 98.6 220.801 101.2 214.501 101.2ZM215.301 84.9C215.301 87.2 217.101 88.7 220.201 88.7C224.901 88.7 228.601 85.3 228.601 80.2V79.3C227.601 79.8 226.201 80.1 223.901 80.5L220.001 81.1C216.701 81.6 215.301 82.9 215.301 84.9ZM255.779 100V50.8H271.379L271.879 56.5H272.279C275.179 52.3 280.679 49.6 286.479 49.6C291.979 49.6 296.079 52 298.779 56.7H299.179C302.779 52.2 308.379 49.6 314.579 49.6C324.579 49.6 330.779 56.3 330.779 69.6V100H313.779V73.9C313.779 67.8 311.579 65.4 308.079 65.4C304.379 65.4 301.779 68 301.779 74V100H284.779V73.9C284.779 67.7 282.679 65.4 279.079 65.4C275.279 65.4 272.779 68.2 272.779 74V100H255.779ZM341.13 100V50.8H356.73L357.23 56.5H357.63C360.53 52.3 366.03 49.6 371.83 49.6C377.33 49.6 381.43 52 384.13 56.7H384.53C388.13 52.2 393.73 49.6 399.93 49.6C409.93 49.6 416.13 56.3 416.13 69.6V100H399.13V73.9C399.13 67.8 396.93 65.4 393.43 65.4C389.73 65.4 387.13 68 387.13 74V100H370.13V73.9C370.13 67.7 368.03 65.4 364.43 65.4C360.63 65.4 358.13 68.2 358.13 74V100H341.13ZM440.087 101.2C430.487 101.2 423.687 95.4 423.687 86.7C423.687 78.7 429.387 73.2 442.387 71.2L450.287 70C453.487 69.5 454.087 69.1 454.087 67.7C454.087 65.2 452.187 63.4 448.487 63.4C444.787 63.4 441.987 65.2 440.987 69.2L424.987 65.9C426.987 55.9 435.287 49.6 448.887 49.6C463.387 49.6 470.587 56.7 470.587 70.4V100H455.087L454.587 94.3H454.187C451.587 98.6 446.387 101.2 440.087 101.2ZM440.887 84.9C440.887 87.2 442.687 88.7 445.787 88.7C450.487 88.7 454.187 85.3 454.187 80.2V79.3C453.187 79.8 451.787 80.1 449.487 80.5L445.587 81.1C442.287 81.6 440.887 82.9 440.887 84.9ZM504.365 101.2C489.465 101.2 478.965 90.8 478.965 75.4C478.965 60 489.465 49.6 504.565 49.6C517.365 49.6 526.965 57 528.765 69.3L511.665 72C511.065 67.7 508.065 65.1 504.365 65.1C499.765 65.1 496.165 69.1 496.165 75.4C496.165 81.7 499.765 85.7 504.465 85.7C507.865 85.7 511.365 83.6 512.065 79.1L528.765 81.7C526.965 93.7 517.165 101.2 504.365 101.2ZM559.945 101.2C544.645 101.2 533.945 90.7 533.945 75.4C533.945 60.1 544.645 49.6 559.945 49.6C575.245 49.6 585.945 60.1 585.945 75.4C585.945 90.7 575.245 101.2 559.945 101.2ZM551.145 75.4C551.145 82 554.845 85.8 559.945 85.8C565.045 85.8 568.745 82 568.745 75.4C568.745 68.8 565.045 65 559.945 65C554.845 65 551.145 68.8 551.145 75.4ZM613.253 101.2C601.653 101.2 592.153 91.3 592.153 75.4C592.153 59.5 601.653 49.6 613.253 49.6C619.653 49.6 623.953 52.6 625.953 55.9H626.353V30H643.353V100H627.753L627.253 94.3H626.853C624.553 98.6 619.253 101.2 613.253 101.2ZM609.353 75.4C609.353 82.1 613.153 85.7 618.053 85.7C622.953 85.7 626.753 82.1 626.753 75.4C626.753 68.7 622.953 65.1 618.053 65.1C613.153 65.1 609.353 68.7 609.353 75.4ZM677.719 101.2C662.019 101.2 651.719 90.9 651.719 75.7C651.719 60.3 662.319 49.6 677.619 49.6C691.819 49.6 702.119 58.8 702.119 74.1C702.119 75.6 702.019 77.4 701.719 79.5H668.319C669.419 84.7 672.919 87.2 677.819 87.2C681.819 87.2 684.519 85.5 685.719 82.8L701.419 86C698.319 95.5 689.419 101.2 677.719 101.2ZM668.819 69.5H685.419C684.319 65.1 681.319 63.5 677.619 63.5C673.419 63.5 670.319 65.4 668.819 69.5ZM736.737 100V30H753.937C776.137 30 791.137 43.5 791.137 65C791.137 86.5 776.137 100 753.937 100H736.737ZM745.937 91.6H754.337C770.737 91.6 781.737 82.2 781.737 65C781.737 47.8 770.737 38.4 754.337 38.4H745.937V91.6ZM825.766 101.2C811.866 101.2 801.566 91 801.566 76.5C801.566 62 811.866 51.8 825.766 51.8C839.666 51.8 849.966 62 849.966 76.5C849.966 91 839.666 101.2 825.766 101.2ZM810.566 76.5C810.566 86.8 816.966 93.6 825.766 93.6C834.566 93.6 840.966 86.8 840.966 76.5C840.966 66.2 834.566 59.4 825.766 59.4C816.966 59.4 810.566 66.2 810.566 76.5ZM883.473 101.2C869.773 101.2 859.673 91 859.673 76.5C859.673 62 869.773 51.8 883.573 51.8C894.973 51.8 904.073 58.5 905.773 68.9L896.873 70.3C895.573 63.6 890.273 59.4 883.573 59.4C875.173 59.4 868.673 65.9 868.673 76.5C868.673 87.1 875.173 93.6 883.573 93.6C890.373 93.6 895.973 89.4 897.273 82.7L905.773 84.1C904.173 94.2 894.973 101.2 883.473 101.2ZM933.554 101.2C923.354 101.2 915.754 96.3 914.154 87.9L922.154 86C923.854 91.5 927.854 94.1 933.554 94.1C939.654 94.1 943.554 91.1 943.554 86.9C943.554 83.6 941.154 81.5 934.054 80.1L928.354 79C919.054 77.2 914.654 73 914.654 66.2C914.654 57.9 921.654 51.8 932.954 51.8C942.754 51.8 949.454 56.4 951.054 64.1L942.954 66C941.454 61.1 937.854 58.9 932.554 58.9C926.654 58.9 923.154 61.6 923.154 65.7C923.154 68.6 924.854 70.4 932.554 71.9L938.254 73C947.754 74.8 952.054 79 952.054 86.2C952.054 95 945.154 101.2 933.554 101.2Z" fill="white"/>
<defs>
<clipPath id="clip0_80_2">
<rect width="98.2948" height="97.0257" fill="white" transform="translate(0 16)"/>
</clipPath>
</defs>
</svg>
