<svg width="600" height="600" viewBox="0 0 600 600" fill="none" xmlns="http://www.w3.org/2000/svg">
<rect width="600" height="600" fill="black"/>
<g clip-path="url(#clip0_65_53)">
<path d="M422.532 487.99L412.652 496.667" stroke="white" stroke-width="4" stroke-miterlimit="10"/>
<path d="M422.532 487.99L412.652 496.667" stroke="white" stroke-width="4" stroke-miterlimit="10"/>
<path d="M433.615 453.676L384.524 496.694" stroke="white" stroke-width="4" stroke-miterlimit="10"/>
<path d="M433.615 453.676L384.524 496.694" stroke="white" stroke-width="4" stroke-miterlimit="10"/>
<path d="M444.641 419.39L356.451 496.722" stroke="white" stroke-width="4" stroke-miterlimit="10"/>
<path d="M444.641 419.39L356.451 496.722" stroke="white" stroke-width="4" stroke-miterlimit="10"/>
<path d="M455.704 385.1H455.676L328.386 496.718" stroke="white" stroke-width="4" stroke-miterlimit="10"/>
<path d="M455.704 385.1H455.676L328.386 496.718" stroke="white" stroke-width="4" stroke-miterlimit="10"/>
<path d="M466.731 350.813L300.314 496.689" stroke="white" stroke-width="4" stroke-miterlimit="10"/>
<path d="M466.731 350.813L300.314 496.689" stroke="white" stroke-width="4" stroke-miterlimit="10"/>
<path d="M477.741 316.559L272.281 496.692" stroke="white" stroke-width="4" stroke-miterlimit="10"/>
<path d="M477.741 316.559L272.281 496.692" stroke="white" stroke-width="4" stroke-miterlimit="10"/>
<path d="M488.775 282.308L244.216 496.67" stroke="white" stroke-width="4" stroke-miterlimit="10"/>
<path d="M488.775 282.308L244.216 496.67" stroke="white" stroke-width="4" stroke-miterlimit="10"/>
<path d="M499.785 248.043L216.184 496.662" stroke="white" stroke-width="4" stroke-miterlimit="10"/>
<path d="M499.785 248.043L216.184 496.662" stroke="white" stroke-width="4" stroke-miterlimit="10"/>
<path d="M498.289 224.741L188.136 496.639" stroke="white" stroke-width="4" stroke-miterlimit="10"/>
<path d="M498.289 224.741L188.136 496.639" stroke="white" stroke-width="4" stroke-miterlimit="10"/>
<path d="M486.324 210.615L160.115 496.637H160.087" stroke="white" stroke-width="4" stroke-miterlimit="10"/>
<path d="M486.324 210.615L160.115 496.637H160.087" stroke="white" stroke-width="4" stroke-miterlimit="10"/>
<path d="M465.063 204.664L133.493 495.347" stroke="white" stroke-width="4" stroke-miterlimit="10"/>
<path d="M465.063 204.664L133.493 495.347" stroke="white" stroke-width="4" stroke-miterlimit="10"/>
<path d="M467.356 104.218L136.544 394.227" stroke="white" stroke-width="4" stroke-miterlimit="10"/>
<path d="M467.356 104.218L136.544 394.227" stroke="white" stroke-width="4" stroke-miterlimit="10"/>
<path d="M441.45 102.338L114.68 388.809" stroke="white" stroke-width="4" stroke-miterlimit="10"/>
<path d="M441.45 102.338L114.68 388.809" stroke="white" stroke-width="4" stroke-miterlimit="10"/>
<path d="M413.408 102.31L102.44 374.91" stroke="white" stroke-width="4" stroke-miterlimit="10"/>
<path d="M413.408 102.31L102.44 374.91" stroke="white" stroke-width="4" stroke-miterlimit="10"/>
<path d="M385.36 102.282L100.215 352.25" stroke="white" stroke-width="4" stroke-miterlimit="10"/>
<path d="M385.36 102.282L100.215 352.25" stroke="white" stroke-width="4" stroke-miterlimit="10"/>
<path d="M357.309 102.282L111.207 318.048" stroke="white" stroke-width="4" stroke-miterlimit="10"/>
<path d="M357.309 102.282L111.207 318.048" stroke="white" stroke-width="4" stroke-miterlimit="10"/>
<path d="M329.242 102.282L122.239 283.763" stroke="white" stroke-width="4" stroke-miterlimit="10"/>
<path d="M329.242 102.282L122.239 283.763" stroke="white" stroke-width="4" stroke-miterlimit="10"/>
<path d="M301.195 102.258L133.207 249.538" stroke="white" stroke-width="4" stroke-miterlimit="10"/>
<path d="M301.195 102.258L133.207 249.538" stroke="white" stroke-width="4" stroke-miterlimit="10"/>
<path d="M273.128 102.258L144.239 215.252" stroke="white" stroke-width="4" stroke-miterlimit="10"/>
<path d="M273.128 102.258L144.239 215.252" stroke="white" stroke-width="4" stroke-miterlimit="10"/>
<path d="M245.061 102.258L155.271 180.994" stroke="white" stroke-width="4" stroke-miterlimit="10"/>
<path d="M245.061 102.258L155.271 180.994" stroke="white" stroke-width="4" stroke-miterlimit="10"/>
<path d="M216.961 102.282L166.326 146.649" stroke="white" stroke-width="4" stroke-miterlimit="10"/>
<path d="M216.961 102.282L166.326 146.649" stroke="white" stroke-width="4" stroke-miterlimit="10"/>
<path d="M188.837 102.338L177.358 114.391" stroke="white" stroke-width="4" stroke-miterlimit="10"/>
<path d="M188.837 102.338L177.358 114.391" stroke="white" stroke-width="4" stroke-miterlimit="10"/>
</g>
<defs>
<clipPath id="clip0_65_53">
<rect width="400" height="395" fill="white" transform="translate(100 102)"/>
</clipPath>
</defs>
</svg>
